<?xml version="1.0" encoding="utf-8"?>
<!-- Generator: Adobe Illustrator 23.0.3, SVG Export Plug-In . SVG Version: 6.00 Build 0)  -->
<svg version="1.1" id="Capa_1" xmlns="http://www.w3.org/2000/svg" xmlns:xlink="http://www.w3.org/1999/xlink" x="0px" y="0px"
	 viewBox="0 0 380 96.7" style="enable-background:new 0 0 380 96.7;" xml:space="preserve">
<style type="text/css">
	.st0{fill:#6B6B6A;}
	.st1{fill:#90908E;}
</style>
<title>Logo-Footer-SVG_Mesa de trabajo 1</title>
<path class="st0" d="M61.2,39.2c-0.8,0-1.7,0.1-2.5,0.4l0.1,0.1c0.3,0.4,0.4,0.8,0.4,1.2c0,1-0.6,1.8-1.3,1.8
	c-0.6,0-1.3-0.8-1.3-1.8c0-0.1,0-0.4,0-0.5c-0.9,0.5-1.6,1.2-2.1,1.9c-0.1,0.4-0.1,0.6,0,1c0.6,1.3,2.1,2.1,3.5,2.1
	c2.5-0.1,4.3-2.2,4.2-4.7c0-0.4,0-0.8-0.1-1C61.9,39.5,61.8,39.2,61.2,39.2z"/>
<path class="st0" d="M31.7,40.2c0,0.1,0.1,0.4,0.1,0.5c0,1-0.6,1.8-1.3,1.8c-0.6,0-1.3-0.8-1.3-1.8c0-0.4,0.1-0.9,0.4-1.2
	c0,0,0-0.1,0.1-0.1c-0.8-0.1-1.6-0.3-2.5-0.4c-0.6,0-0.8,0.4-0.8,0.5c-0.1,0.4-0.1,0.6-0.1,1c-0.1,2.5,1.7,4.5,4.2,4.7
	c1.4,0,2.7-0.8,3.5-2.1c0.1-0.4,0.1-0.6,0-1C33.4,41.5,32.7,40.7,31.7,40.2z"/>
<path class="st0" d="M78.1,29.8c2.9-7,3.9-10.7,3.8-16.9V12c0-0.5-0.3-2.1-0.3-2.1c-0.1-1.9-1.6-3.5-3.4-3.8
	c-3.8-1-9.4,1.2-12.3,6.6c-0.4,0.6-1,1-1.8,1c-2.2-0.3-4.4-0.8-6.6-1.4c-4.4-1.3-8.3-2.5-12.5,0.1L44.1,13l0,0l0,0l0,0l-0.9-0.5
	c-4.3-2.6-8.1-1.4-12.5-0.1c-2.2,0.6-4.4,1.2-6.6,1.4c-0.8,0-1.4-0.4-1.8-1c-3-5.5-8.6-7.5-12.3-6.6c-1.6,0.4-3,1-3.2,4.4l-0.1,2.3
	c-0.1,6.2,0.8,9.9,3.6,16.9c1.2,2.7,0.4,5.8-0.6,9.6c-1.4,5.7-3.1,12.9,1.3,20.8c2.9,4.9,6.1,8.1,9.9,11.7l0.6,0.5
	c0.1-4.3,3.2-7.8,5.1-10.1c0.4-0.5,1-0.8,1.3-0.4c0.6,0.6,0,1.3-0.3,1.7c-1.8,2.1-3,4.5-3.4,7.4c0,0.6,0,1.4,0.1,2.1
	c0,0,0.1,0,0.1-0.1c0,0.1,0,0.1,0,0.3l3.5-1.6c0,0,0.9-0.5,1.4,0.1c0.5,0.6-0.1,1.4-1,1.9c-0.5,0.4-1.9,1.3-2.9,1.9
	c0.1,0.3,0.3,0.5,0.5,0.6l0.6,0.8l2.6-1.2c0,0,1-0.5,1.4,0c0.4,0.5,0,1.3-0.8,1.8c-0.5,0.4-1,0.6-1.6,1l0.9,0.9l0,0l1.2,1.3
	c8.2,1.4,11-4,12.1-6.9c0.3-0.8,0.4-1.7,0.1-2.6c-0.3-0.6-0.8-1.3-1.6-1.4c-3-0.9-5.7-2.6-7.9-4.8c-0.4-0.4-0.4-1.2,0-1.6
	c0.4-0.3,0.9-0.4,1.3-0.3c0.4,0.1,0.9,0.3,1.3,0.5c2.7,1.2,5.6,1.9,8.6,2.3l0,0c3-0.1,5.7-0.9,8.4-2.2c0.5-0.3,1-0.5,1.3-0.6
	c0.5-0.3,1.2-0.1,1.7,0.3c0.3,0.6,0.1,1.3-0.4,1.8c-1.2,0.9-4.3,3.9-7.7,4.7l0,0c-0.8,0.1-1.3,0.6-1.6,1.4c-0.1,0.9-0.1,1.8,0.1,2.6
	c0.9,2.9,3.9,8.4,12.1,7l1.3-1.3l1-1.2c-0.4-0.4-0.9-0.6-1.3-0.9c-0.8-0.4-1.3-1.3-0.8-1.8s1.4,0,1.4,0l2.3,1l0.1-0.1l0.5-0.6
	c0.1-0.3,0.4-0.5,0.5-0.8c-0.9-0.6-2.2-1.6-2.7-1.8c-0.9-0.5-1.6-1.3-1-1.9c0.5-0.6,1.4-0.1,1.4-0.1l3.4,1.4
	c0.1-0.6,0.3-1.4,0.3-2.1c-0.3-2.7-1.4-5.3-3.4-7.4c-0.4-0.4-0.9-1-0.3-1.7c0.4-0.4,0.9-0.3,1.3,0.4c1.8,2.2,4.9,5.7,5.1,10.1L68,72
	c3.8-3.6,7.1-6.6,10-11.7c4.4-7.9,2.7-15.1,1.3-20.8C77.9,35.8,77.1,32.5,78.1,29.8z M68.9,18L76,9.3c0.1-0.1,0.8,0.4,0.4,1.3
	c-1.3,2.9-2.7,5.6-4.3,8.2c1.2,1.2,4.7,8.2,3.9,8.6c-0.3,0.1-0.4,0.1-0.6,0.1c-0.5,0-1-0.4-1.3-0.9c-1.2-2.5-2.9-4.7-4.9-6.5l0,0
	C68.5,19.7,68.3,18.8,68.9,18L68.9,18z M68.6,28.2c0-1.9,1.4-1.3,2.1,0.1c1.3,2.7,3.1,5.1,5.2,7.3c0.6,0.9,1,2.9-0.3,3.5
	c-0.9,0.3-1.9,0.1-2.7-0.5c-1.8-1.2-2.9-4.4-3.1-5.2l0,0c0-0.1,0-0.1-0.1-0.3l-0.1-0.4l0,0C69,31.4,68.6,29.8,68.6,28.2z M66.4,30.6
	c0,1.3-1.3,3-2.2,3s-1.9-1.3-1.9-2.5c0-1,1.6-1.9,2.9-1.9C66,29.2,66.4,29.7,66.4,30.6z M65.7,25c-0.1,1-1,1.9-2.1,1.3
	c-0.8-0.4-1.6-0.8-2.3-1.3c-0.6-0.6-1-1.4-1.2-2.3c0-0.8,0.4-1.6,0.9-2.1c0.5-0.4,1.3-0.4,1.9-0.3C64.7,21.1,65.9,23,65.7,25z
	 M58.9,15.1c1.3-0.3,2.6,0.3,3.2,1.4c0.4,0.8,0,1.6-0.8,1.4c-1,0-2.1-0.4-3-0.9C57.5,16.6,57.9,15.4,58.9,15.1z M51.2,13.7
	c1.6-0.6,3.8,0.1,4.3,1.4c0.5,1.3-2.5,2.2-3.6,2.2c-0.9-0.3-1.6-0.8-1.9-1.7C49.5,14.7,50.1,13.8,51.2,13.7L51.2,13.7z M31.4,16.6
	c0.9-2.2,3.4-3.4,5.7-2.5c0.1,0.1,0.4,0.1,0.5,0.3c1,0.5,1.2,1.3,0.5,2.1c-1.6,1.4-3.5,2.2-5.6,2.1C31.1,18.1,31,17.5,31.4,16.6z
	 M24,17.9c0.9-1,2.2-1.6,3.6-1.3c1.3,0.5,0.9,1.7,0.6,2.5c-0.6,1.7-1.9,2.7-2.9,2.5S23.6,18.9,24,17.9L24,17.9z M25,24.1
	c1.8,0.1,3.4,1.6,3.8,3.4c0.1,1.3-0.8,2.1-1.7,1.7c-1.4-0.5-2.6-1.3-3.6-2.5c-0.5-0.8-0.4-1.8,0.3-2.3C24.1,24.1,24.6,24,25,24.1z
	 M25,30.8c1.2,0,1.7,0.6,1.7,1.7c0,1-0.6,1.4-1.8,1.4c-1.3,0-2.2-0.6-2.2-1.6C22.7,31.5,23.6,30.8,25,30.8L25,30.8z M19.4,32.8
	l-0.1,0.4c0,0.1-0.1,0.1-0.1,0.3l0,0c-0.1,0.3-0.4,1-0.8,1.8c-0.3,0.6-0.6,1.2-0.9,1.8c-0.4,0.5-0.8,1-1.4,1.4
	c-0.8,0.6-1.8,0.8-2.7,0.5c-1.3-0.6-0.9-2.6-0.3-3.4c2.1-2.1,3.8-4.5,5.1-7.1c0.6-1.4,2.1-2.1,1.9-0.1
	C20.2,29.8,19.9,31.2,19.4,32.8L19.4,32.8z M12.5,9.4l7.1,8.7c0.5,0.6,0.5,1.7-0.3,2.2c0,0,0,0-0.1,0c-2.1,1.8-3.8,4-4.9,6.5
	c-0.3,0.5-0.8,0.9-1.3,0.9c-0.3,0-0.5,0-0.6-0.1c-0.8-0.4,2.7-7.4,3.9-8.6c0,0-3.2-5.5-4.3-8.2C11.7,9.7,12.4,9.1,12.5,9.4L12.5,9.4
	z M10.3,48.8c-0.4-2.1,0-4.3,1-6c0.6-0.9,1.4-0.8,2.1,0.1c1.6,1.9,1.2,4.9-0.8,6.5c-0.1,0.1-0.3,0.1-0.4,0.3
	C11.5,50.2,10.8,50.1,10.3,48.8L10.3,48.8z M12.9,53.8c0-1.9,0.8-2.7,2.6-1.8c1.4,0.8,2.9,1.7,4.3,2.7c1.8,1.9,1.9,3.4,1,4.7
	c-1.2,1.7-3.5,1.7-5.3,0.1C13.7,58.1,12.8,56,12.9,53.8L12.9,53.8z M19.8,67.7c-1,0.3-2.3-0.8-2.9-2.5c-0.3-0.8-0.6-1.9,0.6-2.5
	c1.3-0.3,2.7,0.3,3.6,1.3C21.5,65.1,20.7,67.5,19.8,67.7z M21.7,48.6c-0.9,0.1-1.8,0.1-2.6-0.4c-0.6-0.3-2.3-2.9-2.1-4.2
	c0.1-0.9,0.5-1.7,1.2-2.2c0.9-0.5,1.9-0.3,2.5,0.6l0.1,0.1c0.8,1.3,1.3,2.7,1.8,4.2C22.7,47.6,22.3,48.3,21.7,48.6L21.7,48.6z
	 M23,53.4c-1.2-1.2-0.8-3.2,0.9-3.2s3.4,0.4,4.8,1c1,0.4,1.2,1.8,0,2.7C26.9,55,24.6,54.9,23,53.4L23,53.4z M29.8,59.4
	c-1,0.4-2.3,0.1-3.1-0.6c-0.5-0.4-0.5-1-0.1-1.6c0.1-0.1,0.1-0.1,0.3-0.3c0.9-0.8,2.5-1,3-0.4C30.3,57.5,30.4,58.6,29.8,59.4
	L29.8,59.4z M35,60.3c-0.3,0.6-1.3,0.3-1-0.6c0.9-2.3,2.6-8.2,0.5-10.9c-2.5-2.2-8.3,0-12.1-9.9c-0.1-0.3,0-0.6,0.6-0.6
	c1.2,0,2.9-0.1,3.4-0.1c6.5-0.3,8.3,3.1,9.1,4.5c0,0,0,0.1,0.1,0.3l0,0l0,0c0.9,2.3,1.4,4.8,1.7,7.1v0.1
	C37.5,53.7,36.7,57.2,35,60.3L35,60.3z M36.3,36.3c-1.4-0.5-2.7-1.2-3.9-1.9c-1.2-0.6-1.7-2.1-1-3.2C32,29.8,33,29,35.1,29
	c0.9,0.5,1.6,1.3,2.3,2.1c0.6,0.9,1,2.1,1.2,3.1C38.9,35.8,37.9,36.8,36.3,36.3z M38.4,24.9c-1.4,1.4-3.5,2.1-5.6,1.7
	c-2.3-0.4-3.8-2.1-3.2-4c0.3-1.4,1.4-2.2,3.9-2.1c1.6,0.4,3.1,0.8,4.5,1.4C39.8,22.5,39.7,23.6,38.4,24.9z M42.5,25.1
	c0.5-1,1.7-1.6,2.7-1.3c1,0.4,1.7,1.3,1.8,2.3c0.4,2.3,0.3,4.7-0.6,6.8c-0.5,1.2-1.3,2.2-2.6,1.9c-0.9-0.1-2.2-1.8-2.1-1.9
	C40.1,30.2,41,27.6,42.5,25.1z M46.4,41.4c-1.2,1.3-3.2,1.6-4.5,0.4c-0.9-0.9-1-3.1-0.1-3.5c1.6-0.5,3.4-0.8,4.9-0.5
	C47.6,37.9,47.3,40.3,46.4,41.4L46.4,41.4z M47.7,17.7c-0.3,0.8-0.8,1.6-1.4,1.9c-0.5,0.4-3.4,0.6-4.3-0.3c-0.6-0.5-1-1.2-1.2-2.1
	c0-0.9,0.8-1.7,1.7-1.8c0,0,0,0,0.1,0c1.4,0,2.7,0.1,4.2,0.4C47.3,16.4,47.7,17.1,47.7,17.7L47.7,17.7z M49.7,22.3
	c1.3-1.3,3-1.9,4.8-1.9c1.2,0,2.3,0.5,3.1,1.4c0.3,0.9,0.1,1.9-0.4,2.9c-1.4,1.4-3.4,2.2-5.5,1.9C49.3,26.3,48.2,24,49.7,22.3z
	 M49.7,33.8c0.5-3.1,3.4-5.3,6.6-4.8c0.3,0,0.5,0.1,0.8,0.1c1.3,0.4,1.8,1.3,1.2,2.5c-1.6,2.2-3.9,3.8-6.6,4.3
	C49.8,35.9,49.4,35,49.7,33.8z M53.8,48.8c-2.1,2.9-0.4,8.7,0.5,10.9c0.4,0.9-0.6,1.3-1,0.6c-1.7-3.1-2.5-6.6-2.3-10.1v-0.1
	c0.3-2.5,0.8-4.9,1.7-7.1l0,0l0,0l0.1-0.3c0.8-1.4,2.6-4.8,9.1-4.5c0.5,0,2.3,0.1,3.4,0.1c0.6,0,0.8,0.5,0.6,0.6
	C62.3,48.8,56.3,46.7,53.8,48.8z M61.8,58.6c-0.8,0.9-2.1,1.2-3.1,0.6c-0.6-0.8-0.6-1.9,0.1-2.9c0.5-0.6,2.1-0.5,3,0.4
	C62.3,57.5,62.4,58,61.8,58.6z M63.1,54.4c-1,0.1-2.1-0.3-2.9-1c-0.5-0.8-0.4-1.8,0.3-2.3c0.1-0.1,0.3-0.1,0.4-0.3
	c1.6-1.3,4.3-1.4,5.3-0.3S64.4,54,63.1,54.4L63.1,54.4z M65.9,45.4c0-1.3,1.9-2.6,3.8-2.5c1.2,0,1.7,0.6,1.7,1.9
	c0,1.6-1.7,3.8-3,3.9C67.1,48.9,65.9,47,65.9,45.4L65.9,45.4z M71.4,64.9c-0.6,1.7-1.9,2.7-2.9,2.5s-1.7-2.6-1.4-3.6
	c0.9-1,2.2-1.6,3.6-1.3C72,62.9,71.6,64,71.4,64.9L71.4,64.9z M75.7,53.4c0.1,2.2-0.8,4.3-2.5,5.6c-1.8,1.6-4.2,1.6-5.5-0.1
	c-0.9-1.3-0.6-2.6,1-4.7c1.3-1,2.7-1.9,4.2-2.7C74.9,50.7,75.7,51.5,75.7,53.4z M77.9,48.8c-0.5,1.3-1.2,1.3-2.1,0.8
	c-2.1-1.4-2.7-4.2-1.3-6.4c0.1-0.1,0.1-0.3,0.3-0.4c0.6-0.9,1.4-1,2.1-0.1C77.9,44.6,78.3,46.7,77.9,48.8L77.9,48.8z"/>
<path class="st0" d="M44.1,77.4c0,0-0.8,6.8-12.5,7c-0.1,0.9-0.4,3.5,1.3,4.8c1.3,0.9,3.8,1.4,6.1,1.7l0,0c3.4,0.3,6.8,0.3,10.1,0
	l0,0c2.2-0.4,4.8-0.8,6.1-1.7c1.7-1.3,1.6-3.9,1.4-4.7C44.9,84.1,44.1,77.4,44.1,77.4z"/>
<g>
	<path class="st1" d="M94.9,12h3.7c3.4,0,5.4,2,5.4,4.7v0c0,2.7-2,4.8-5.4,4.8h-3.6V12z M98.6,19.2c1.6,0,2.6-0.9,2.6-2.4v0
		c0-1.5-1-2.4-2.6-2.4h-1.1v4.8H98.6z"/>
	<path class="st1" d="M105.1,11.6h2.7v1.9h-2.7V11.6z M105.1,14.2h2.6v7.3h-2.6V14.2z"/>
	<path class="st1" d="M109.2,14.2h2.6v1.5c0.4-1,1.1-1.7,2.3-1.6v2.7h-0.2c-1.3,0-2.1,0.8-2.1,2.5v2.3h-2.6V14.2z"/>
	<path class="st1" d="M114.5,17.9L114.5,17.9c0-2.2,1.5-3.9,3.7-3.9c2.5,0,3.7,1.9,3.7,4c0,0.2,0,0.4,0,0.5H117
		c0.2,0.8,0.8,1.2,1.6,1.2c0.6,0,1.1-0.2,1.6-0.7l1.4,1.2c-0.7,0.9-1.7,1.5-3.2,1.5C116.1,21.7,114.5,20.2,114.5,17.9z M119.5,17.3
		c-0.1-0.8-0.6-1.3-1.3-1.3c-0.7,0-1.1,0.5-1.3,1.3H119.5z"/>
	<path class="st1" d="M122.7,17.9L122.7,17.9c0-2.1,1.6-3.8,3.9-3.8c1.5,0,2.5,0.7,3.1,1.6L128,17c-0.4-0.5-0.7-0.8-1.4-0.8
		c-0.8,0-1.4,0.7-1.4,1.6v0c0,0.9,0.6,1.7,1.5,1.7c0.6,0,1-0.3,1.4-0.8l1.7,1.2c-0.7,1-1.7,1.7-3.3,1.7
		C124.4,21.7,122.7,20,122.7,17.9z"/>
	<path class="st1" d="M130.2,17.9L130.2,17.9c0-2.1,1.6-3.8,3.9-3.8c1.5,0,2.5,0.7,3.1,1.6l-1.7,1.3c-0.4-0.5-0.7-0.8-1.4-0.8
		c-0.8,0-1.4,0.7-1.4,1.6v0c0,0.9,0.6,1.7,1.5,1.7c0.6,0,1-0.3,1.4-0.8l1.7,1.2c-0.7,1-1.7,1.7-3.3,1.7
		C131.9,21.7,130.2,20,130.2,17.9z"/>
	<path class="st1" d="M138.2,11.6h2.7v1.9h-2.7V11.6z M138.3,14.2h2.6v7.3h-2.6V14.2z"/>
	<path class="st1" d="M142,17.9L142,17.9c0-2.1,1.7-3.9,4.1-3.9c2.3,0,4,1.7,4,3.8v0c0,2.1-1.7,3.8-4.1,3.8
		C143.7,21.7,142,20,142,17.9z M147.6,17.9L147.6,17.9c0-0.9-0.7-1.7-1.6-1.7c-0.9,0-1.5,0.7-1.5,1.6v0c0,0.9,0.7,1.7,1.6,1.7
		C147,19.5,147.6,18.8,147.6,17.9z M146.5,11l2.4,0.8l-2,1.7h-1.8L146.5,11z"/>
	<path class="st1" d="M151.2,14.2h2.6v1c0.5-0.6,1.2-1.2,2.2-1.2c1.6,0,2.5,1,2.5,2.7v4.8h-2.6v-4c0-0.8-0.4-1.2-1-1.2
		c-0.6,0-1.1,0.4-1.1,1.2v4h-2.6V14.2z"/>
	<path class="st1" d="M159.8,14.2h2.7v2.6h-2.7V14.2z M159.8,18.9h2.7v2.6h-2.7V18.9z"/>
	<path class="st1" d="M171.4,12h1.5l4.2,9.6h-1.8l-1-2.3h-4.5l-1,2.3h-1.7L171.4,12z M173.8,17.8l-1.6-3.8l-1.6,3.8H173.8z"/>
	<path class="st1" d="M177,14.4h1.8l1.9,5.3l1.9-5.3h1.7l-2.9,7.2h-1.5L177,14.4z"/>
	<path class="st1" d="M184.5,19.7h1.8v1.9h-1.8V19.7z"/>
	<path class="st1" d="M192.1,16.8L192.1,16.8c0-2.7,2-4.9,4.9-4.9c1.7,0,2.8,0.6,3.7,1.5l-1.1,1.2c-0.8-0.7-1.6-1.2-2.7-1.2
		c-1.8,0-3.1,1.5-3.1,3.3v0c0,1.9,1.3,3.4,3.1,3.4c1.2,0,1.9-0.5,2.7-1.2l1.1,1.1c-1,1-2.1,1.7-3.8,1.7
		C194.1,21.7,192.1,19.5,192.1,16.8z"/>
	<path class="st1" d="M206.7,21.5v-0.9c-0.5,0.6-1.2,1-2.3,1c-1.4,0-2.5-0.8-2.5-2.2v0c0-1.6,1.2-2.3,2.9-2.3c0.9,0,1.4,0.1,2,0.3
		v-0.1c0-1-0.6-1.5-1.8-1.5c-0.8,0-1.4,0.2-2,0.4l-0.4-1.3c0.8-0.4,1.6-0.6,2.7-0.6c2.1,0,3.1,1.1,3.1,3v4.2H206.7z M206.7,18.5
		c-0.4-0.2-1-0.3-1.6-0.3c-1,0-1.6,0.4-1.6,1.1v0c0,0.7,0.6,1.1,1.4,1.1c1.1,0,1.9-0.6,1.9-1.5V18.5z"/>
	<path class="st1" d="M209.9,20.4l4.1-4.7h-4v-1.3h6.1v1.1l-4.1,4.7h4.1v1.3h-6.2V20.4z"/>
	<path class="st1" d="M217.3,18L217.3,18c0-2.1,1.6-3.8,3.8-3.8s3.8,1.7,3.8,3.7v0c0,2-1.6,3.7-3.8,3.7
		C218.9,21.7,217.3,20,217.3,18z M223.3,18L223.3,18c0-1.3-0.9-2.3-2.2-2.3c-1.3,0-2.2,1-2.2,2.3v0c0,1.2,0.9,2.3,2.2,2.3
		C222.4,20.3,223.3,19.2,223.3,18z M221.8,11.2l1.5,0.7l-1.7,1.6h-1.2L221.8,11.2z"/>
	<path class="st1" d="M226.6,14.4h1.6v1.1c0.5-0.7,1.1-1.3,2.2-1.3c1.6,0,2.5,1.1,2.5,2.8v4.6h-1.6v-4.1c0-1.1-0.6-1.7-1.5-1.7
		c-0.9,0-1.6,0.7-1.6,1.8v4h-1.6V14.4z"/>
	<path class="st1" d="M240.4,13.7l-1.7,0.5l-0.4-1.4l2.5-0.8h1.2v9.6h-1.7V13.7z"/>
	<path class="st1" d="M244,20.2l1-1.2c0.8,0.7,1.6,1.1,2.4,1.1c1.1,0,1.9-0.7,1.9-1.6v0c0-1-0.8-1.6-2-1.6c-0.7,0-1.3,0.2-1.7,0.4
		l-1-0.7l0.3-4.6h5.7v1.5h-4.2l-0.1,2.2c0.4-0.2,0.9-0.3,1.5-0.3c1.8,0,3.3,1,3.3,3v0c0,1.9-1.4,3.2-3.5,3.2
		C246.1,21.7,244.9,21.1,244,20.2z"/>
	<path class="st1" d="M254.2,13.7l-1.7,0.5l-0.4-1.4l2.5-0.8h1.2v9.6h-1.7V13.7z"/>
	<path class="st1" d="M262.8,19.4H258l-0.3-1.2l5.3-6.2h1.4V18h1.4v1.4h-1.4v2.1h-1.6V19.4z M262.8,18v-3.8l-3.1,3.8H262.8z"/>
	<path class="st1" d="M266.9,22.8c0.8-0.2,1.2-0.6,1.2-1.3h-0.7v-1.9h1.8v1.6c0,1.5-0.7,2.1-2.1,2.2L266.9,22.8z"/>
	<path class="st1" d="M277.7,13.6h-3V12h7.7v1.5h-3v7.9h-1.7V13.6z"/>
	<path class="st1" d="M283.7,11.7h1.8v1.6h-1.8V11.7z M283.8,14.4h1.6v7.2h-1.6V14.4z"/>
	<path class="st1" d="M287.5,22.9l0.6-1.2c0.8,0.5,1.6,0.8,2.5,0.8c1.5,0,2.3-0.8,2.3-2.2v-0.6c-0.6,0.8-1.3,1.3-2.5,1.3
		c-1.7,0-3.3-1.2-3.3-3.3v0c0-2.1,1.6-3.4,3.3-3.4c1.2,0,2,0.6,2.5,1.2v-1.1h1.6v5.7c0,1.2-0.3,2.1-0.9,2.7c-0.7,0.7-1.7,1-2.9,1
		C289.6,23.7,288.5,23.4,287.5,22.9z M293,17.6L293,17.6c0-1.2-1-2-2.1-2c-1.1,0-2,0.8-2,2v0c0,1.2,0.9,2,2,2
		C292,19.6,293,18.8,293,17.6z"/>
	<path class="st1" d="M296.6,14.4h1.6V16c0.4-1.1,1.3-1.8,2.5-1.7V16h-0.1c-1.4,0-2.4,0.9-2.4,2.8v2.7h-1.6V14.4z"/>
	<path class="st1" d="M301.6,18L301.6,18c0-2.1,1.5-3.8,3.5-3.8c2.3,0,3.4,1.8,3.4,3.8c0,0.1,0,0.3,0,0.5h-5.3
		c0.2,1.2,1,1.8,2.1,1.8c0.8,0,1.4-0.3,1.9-0.9l1,0.9c-0.7,0.8-1.6,1.3-2.9,1.3C303.2,21.7,301.6,20.2,301.6,18z M306.9,17.4
		c-0.1-1.1-0.7-1.9-1.8-1.9c-1,0-1.7,0.8-1.9,1.9H306.9z"/>
	<path class="st1" d="M309.9,19.7h1.8v1.9h-1.8V19.7z"/>
	<path class="st1" d="M95.2,28.3H99c2.2,0,3.6,1.3,3.6,3.2v0c0,2.1-1.7,3.2-3.8,3.2h-1.9v3h-1.7V28.3z M98.8,33.2c1.3,0,2-0.7,2-1.7
		v0c0-1.1-0.8-1.7-2-1.7h-1.9v3.4H98.8z"/>
	<path class="st1" d="M104.1,30.6h1.6v1.6c0.4-1.1,1.3-1.8,2.5-1.7v1.7h-0.1c-1.4,0-2.4,0.9-2.4,2.8v2.7h-1.6V30.6z"/>
	<path class="st1" d="M109.1,34.3L109.1,34.3c0-2.1,1.6-3.8,3.8-3.8c2.2,0,3.8,1.7,3.8,3.7v0c0,2-1.6,3.7-3.8,3.7
		C110.7,38,109.1,36.3,109.1,34.3z M115.1,34.3L115.1,34.3c0-1.3-0.9-2.3-2.2-2.3c-1.3,0-2.2,1-2.2,2.3v0c0,1.2,0.9,2.3,2.2,2.3
		C114.2,36.5,115.1,35.5,115.1,34.3z"/>
	<path class="st1" d="M117.3,30.6h1.8l1.9,5.3l1.9-5.3h1.7l-2.9,7.2h-1.5L117.3,30.6z"/>
	<path class="st1" d="M124.8,35.9h1.8v1.9h-1.8V35.9z"/>
	<path class="st1" d="M132.2,34.2L132.2,34.2c0-2.4,1.6-3.7,3.3-3.7c1.2,0,1.9,0.6,2.4,1.3v-3.8h1.6v9.9H138v-1.2
		c-0.5,0.7-1.3,1.3-2.4,1.3C133.9,37.9,132.2,36.6,132.2,34.2z M138,34.2L138,34.2c0-1.4-1-2.3-2.1-2.3c-1.1,0-2.1,0.9-2.1,2.3v0
		c0,1.4,0.9,2.3,2.1,2.3C137,36.5,138,35.6,138,34.2z"/>
	<path class="st1" d="M141.3,34.2L141.3,34.2c0-2.1,1.4-3.8,3.5-3.8c2.3,0,3.4,1.8,3.4,3.8c0,0.1,0,0.3,0,0.5h-5.3
		c0.2,1.2,1,1.8,2.1,1.8c0.8,0,1.4-0.3,1.9-0.9l1,0.9c-0.7,0.8-1.6,1.3-2.9,1.3C142.9,38,141.3,36.5,141.3,34.2z M146.6,33.7
		c-0.1-1.1-0.7-1.9-1.8-1.9c-1,0-1.7,0.8-1.9,1.9H146.6z"/>
	<path class="st1" d="M154.1,28.3h4.3c1.1,0,1.9,0.3,2.5,0.8c0.4,0.4,0.6,0.9,0.6,1.6v0c0,1.1-0.7,1.7-1.4,2.1
		c1.1,0.4,1.9,1,1.9,2.3v0c0,1.7-1.4,2.6-3.5,2.6h-4.4V28.3z M158,32.3c1.1,0,1.8-0.4,1.8-1.3v0c0-0.7-0.6-1.2-1.7-1.2h-2.4v2.5H158
		z M158.5,36.3c1.1,0,1.8-0.4,1.8-1.3v0c0-0.8-0.6-1.3-2-1.3h-2.6v2.6H158.5z"/>
	<path class="st1" d="M163.6,35.2v-4.6h1.6v4.1c0,1.1,0.6,1.7,1.5,1.7c0.9,0,1.6-0.7,1.6-1.8v-4h1.6v7.2h-1.6v-1.1
		c-0.5,0.7-1.1,1.3-2.2,1.3C164.6,37.9,163.6,36.9,163.6,35.2z"/>
	<path class="st1" d="M171.7,34.2L171.7,34.2c0-2.1,1.4-3.8,3.5-3.8c2.3,0,3.4,1.8,3.4,3.8c0,0.1,0,0.3,0,0.5h-5.3
		c0.2,1.2,1,1.8,2.1,1.8c0.8,0,1.4-0.3,1.9-0.9l1,0.9c-0.7,0.8-1.6,1.3-2.9,1.3C173.3,38,171.7,36.5,171.7,34.2z M177,33.7
		c-0.1-1.1-0.7-1.9-1.8-1.9c-1,0-1.7,0.8-1.9,1.9H177z"/>
	<path class="st1" d="M180.3,30.6h1.6v1.1c0.5-0.7,1.1-1.3,2.2-1.3c1.6,0,2.5,1.1,2.5,2.8v4.6h-1.6v-4.1c0-1.1-0.6-1.7-1.5-1.7
		c-0.9,0-1.6,0.7-1.6,1.8v4h-1.6V30.6z"/>
	<path class="st1" d="M188.3,34.3L188.3,34.3c0-2.1,1.6-3.8,3.8-3.8s3.8,1.7,3.8,3.7v0c0,2-1.6,3.7-3.8,3.7
		C189.9,38,188.3,36.3,188.3,34.3z M194.3,34.3L194.3,34.3c0-1.3-0.9-2.3-2.2-2.3c-1.3,0-2.2,1-2.2,2.3v0c0,1.2,0.9,2.3,2.2,2.3
		C193.5,36.5,194.3,35.5,194.3,34.3z"/>
	<path class="st1" d="M197,36.9l0.7-1.1c0.8,0.6,1.6,0.9,2.3,0.9c0.7,0,1.1-0.3,1.1-0.8v0c0-0.6-0.8-0.7-1.6-1
		c-1.1-0.3-2.2-0.7-2.2-2.1v0c0-1.4,1.1-2.2,2.5-2.2c0.9,0,1.9,0.3,2.6,0.8l-0.7,1.2c-0.7-0.4-1.4-0.7-2-0.7c-0.6,0-1,0.3-1,0.7v0
		c0,0.5,0.8,0.7,1.6,1c1,0.3,2.2,0.8,2.2,2.1v0c0,1.5-1.2,2.2-2.7,2.2C199.1,37.9,197.9,37.6,197,36.9z"/>
	<path class="st1" d="M212,28.2h1.5l4.2,9.6H216l-1-2.3h-4.5l-1,2.3h-1.7L212,28.2z M214.4,34l-1.6-3.8l-1.6,3.8H214.4z"/>
	<path class="st1" d="M219.2,28h1.8v1.6h-1.8V28z M219.3,30.6h1.6v7.2h-1.6V30.6z"/>
	<path class="st1" d="M223.1,30.6h1.6v1.6c0.4-1.1,1.3-1.8,2.5-1.7v1.7h-0.1c-1.4,0-2.4,0.9-2.4,2.8v2.7h-1.6V30.6z"/>
	<path class="st1" d="M228,34.2L228,34.2c0-2.1,1.5-3.8,3.5-3.8c2.3,0,3.4,1.8,3.4,3.8c0,0.1,0,0.3,0,0.5h-5.3
		c0.2,1.2,1,1.8,2.1,1.8c0.8,0,1.4-0.3,1.9-0.9l1,0.9c-0.7,0.8-1.6,1.3-2.9,1.3C229.6,38,228,36.5,228,34.2z M233.3,33.7
		c-0.1-1.1-0.7-1.9-1.8-1.9c-1,0-1.7,0.8-1.9,1.9H233.3z"/>
	<path class="st1" d="M236,36.9l0.7-1.1c0.8,0.6,1.6,0.9,2.3,0.9c0.7,0,1.1-0.3,1.1-0.8v0c0-0.6-0.8-0.7-1.6-1
		c-1.1-0.3-2.2-0.7-2.2-2.1v0c0-1.4,1.1-2.2,2.5-2.2c0.9,0,1.9,0.3,2.6,0.8l-0.7,1.2c-0.7-0.4-1.4-0.7-2-0.7c-0.6,0-1,0.3-1,0.7v0
		c0,0.5,0.8,0.7,1.6,1c1,0.3,2.2,0.8,2.2,2.1v0c0,1.5-1.2,2.2-2.7,2.2C238,37.9,236.9,37.6,236,36.9z"/>
	<path class="st1" d="M242.8,39.1c0.8-0.2,1.2-0.6,1.2-1.3h-0.7v-1.9h1.8v1.6c0,1.5-0.7,2.1-2.1,2.2L242.8,39.1z"/>
	<path class="st1" d="M254.6,28.2h1.5l4.2,9.6h-1.8l-1-2.3h-4.5l-1,2.3h-1.7L254.6,28.2z M257,34l-1.6-3.8l-1.6,3.8H257z"/>
	<path class="st1" d="M261.8,30.6h1.6v1.6c0.4-1.1,1.3-1.8,2.5-1.7v1.7h-0.1c-1.4,0-2.4,0.9-2.4,2.8v2.7h-1.6V30.6z"/>
	<path class="st1" d="M267.2,39.1l0.6-1.2c0.8,0.5,1.6,0.8,2.5,0.8c1.5,0,2.3-0.8,2.3-2.2v-0.6c-0.6,0.8-1.3,1.3-2.5,1.3
		c-1.7,0-3.3-1.2-3.3-3.3v0c0-2.1,1.6-3.4,3.3-3.4c1.2,0,2,0.6,2.5,1.2v-1.1h1.6v5.7c0,1.2-0.3,2.1-0.9,2.7c-0.7,0.7-1.7,1-2.9,1
		C269.2,40,268.1,39.7,267.2,39.1z M272.6,33.9L272.6,33.9c0-1.2-1-2-2.1-2c-1.1,0-2,0.8-2,2v0c0,1.2,0.9,2,2,2
		C271.7,35.8,272.6,35,272.6,33.9z"/>
	<path class="st1" d="M275.9,34.2L275.9,34.2c0-2.1,1.5-3.8,3.5-3.8c2.3,0,3.4,1.8,3.4,3.8c0,0.1,0,0.3,0,0.5h-5.3
		c0.2,1.2,1,1.8,2.1,1.8c0.8,0,1.4-0.3,1.9-0.9l1,0.9c-0.7,0.8-1.6,1.3-2.9,1.3C277.5,38,275.9,36.5,275.9,34.2z M281.2,33.7
		c-0.1-1.1-0.7-1.9-1.8-1.9c-1,0-1.7,0.8-1.9,1.9H281.2z"/>
	<path class="st1" d="M284.5,30.6h1.6v1.1c0.5-0.7,1.1-1.3,2.2-1.3c1.6,0,2.5,1.1,2.5,2.8v4.6h-1.6v-4.1c0-1.1-0.6-1.7-1.5-1.7
		c-0.9,0-1.6,0.7-1.6,1.8v4h-1.6V30.6z"/>
	<path class="st1" d="M293.2,35.8v-3.8h-0.9v-1.4h0.9v-2h1.6v2h1.9v1.4h-1.9v3.5c0,0.6,0.3,0.9,0.9,0.9c0.4,0,0.7-0.1,1-0.2v1.3
		c-0.4,0.2-0.9,0.4-1.5,0.4C294.1,37.9,293.2,37.4,293.2,35.8z"/>
	<path class="st1" d="M298.5,28h1.8v1.6h-1.8V28z M298.5,30.6h1.6v7.2h-1.6V30.6z"/>
	<path class="st1" d="M302.3,30.6h1.6v1.1c0.5-0.7,1.1-1.3,2.2-1.3c1.6,0,2.5,1.1,2.5,2.8v4.6h-1.6v-4.1c0-1.1-0.6-1.7-1.5-1.7
		c-0.9,0-1.6,0.7-1.6,1.8v4h-1.6V30.6z"/>
	<path class="st1" d="M315.1,37.8v-0.9c-0.5,0.6-1.2,1-2.3,1c-1.4,0-2.5-0.8-2.5-2.2v0c0-1.6,1.2-2.3,2.9-2.3c0.9,0,1.4,0.1,2,0.3
		v-0.1c0-1-0.6-1.5-1.8-1.5c-0.8,0-1.4,0.2-2,0.4l-0.4-1.3c0.8-0.4,1.6-0.6,2.7-0.6c2.1,0,3.1,1.1,3.1,3v4.2H315.1z M315.1,34.8
		c-0.4-0.2-1-0.3-1.6-0.3c-1,0-1.6,0.4-1.6,1.1v0c0,0.7,0.6,1.1,1.4,1.1c1.1,0,1.9-0.6,1.9-1.5V34.8z"/>
	<path class="st1" d="M318.6,35.9h1.8v1.9h-1.8V35.9z"/>
	<path class="st1" d="M97.2,46.9h-2.8v-2.3h8.3v2.3h-2.8v7.2h-2.6V46.9z"/>
	<path class="st1" d="M102.1,50.4L102.1,50.4c0-2.2,1.5-3.9,3.7-3.9c2.5,0,3.7,1.9,3.7,4c0,0.2,0,0.4,0,0.5h-4.9
		c0.2,0.8,0.8,1.2,1.6,1.2c0.6,0,1.1-0.2,1.6-0.7l1.4,1.2c-0.7,0.9-1.7,1.5-3.2,1.5C103.7,54.2,102.1,52.7,102.1,50.4z M107.1,49.8
		c-0.1-0.8-0.6-1.3-1.3-1.3c-0.7,0-1.1,0.5-1.3,1.3H107.1z"/>
	<path class="st1" d="M110.7,44.2h2.6v9.9h-2.6V44.2z"/>
	<path class="st1" d="M114.4,50.4L114.4,50.4c0-2.2,1.5-3.9,3.7-3.9c2.5,0,3.7,1.9,3.7,4c0,0.2,0,0.4,0,0.5h-4.9
		c0.2,0.8,0.8,1.2,1.6,1.2c0.6,0,1.1-0.2,1.6-0.7l1.4,1.2c-0.7,0.9-1.7,1.5-3.2,1.5C116,54.2,114.4,52.7,114.4,50.4z M119.4,49.8
		c-0.1-0.8-0.6-1.3-1.3-1.3c-0.7,0-1.1,0.5-1.3,1.3H119.4z M118.5,43.5l2.4,0.8l-2,1.7h-1.8L118.5,43.5z"/>
	<path class="st1" d="M123.3,48.8h-0.9v-2h0.9v-0.2c0-0.8,0.2-1.5,0.6-1.9c0.4-0.4,1-0.6,1.9-0.6c0.8,0,1.3,0.1,1.7,0.2v1.8
		c-0.3-0.1-0.6-0.1-1-0.1c-0.5,0-0.7,0.2-0.7,0.7v0.2h1.7v2h-1.6v5.3h-2.6V48.8z"/>
	<path class="st1" d="M127.9,50.4L127.9,50.4c0-2.1,1.7-3.9,4.1-3.9c2.3,0,4,1.7,4,3.8v0c0,2.1-1.7,3.8-4.1,3.8
		C129.6,54.2,127.9,52.5,127.9,50.4z M133.5,50.4L133.5,50.4c0-0.9-0.7-1.7-1.6-1.7c-0.9,0-1.5,0.7-1.5,1.6v0c0,0.9,0.7,1.7,1.6,1.7
		C132.9,52.1,133.5,51.3,133.5,50.4z"/>
	<path class="st1" d="M137.1,46.7h2.6v1c0.5-0.6,1.2-1.2,2.2-1.2c1.6,0,2.5,1,2.5,2.7v4.8h-2.6v-4c0-0.8-0.4-1.2-1-1.2
		c-0.6,0-1.1,0.4-1.1,1.2v4h-2.6V46.7z"/>
	<path class="st1" d="M145.4,50.4L145.4,50.4c0-2.1,1.7-3.9,4.1-3.9c2.3,0,4,1.7,4,3.8v0c0,2.1-1.7,3.8-4.1,3.8
		C147.1,54.2,145.4,52.5,145.4,50.4z M151,50.4L151,50.4c0-0.9-0.7-1.7-1.6-1.7c-0.9,0-1.5,0.7-1.5,1.6v0c0,0.9,0.7,1.7,1.6,1.7
		C150.4,52.1,151,51.3,151,50.4z"/>
	<path class="st1" d="M154.6,46.7h2.7v2.6h-2.7V46.7z M154.6,51.4h2.7v2.6h-2.7V51.4z"/>
	<path class="st1" d="M167.6,51.9h-4.8l-0.3-1.2l5.3-6.2h1.4v6.1h1.4v1.4h-1.4v2.1h-1.6V51.9z M167.6,50.6v-3.8l-3.1,3.8H167.6z"/>
	<path class="st1" d="M171.8,52.8l1-1.2c0.8,0.7,1.6,1.1,2.4,1.1c1.1,0,1.9-0.7,1.9-1.6v0c0-1-0.8-1.6-2-1.6c-0.7,0-1.3,0.2-1.7,0.4
		l-1-0.7l0.3-4.6h5.7v1.5h-4.2l-0.1,2.2c0.4-0.2,0.9-0.3,1.5-0.3c1.8,0,3.3,1,3.3,3v0c0,1.9-1.4,3.2-3.5,3.2
		C173.9,54.2,172.7,53.6,171.8,52.8z"/>
	<path class="st1" d="M182,46.2l-1.7,0.5l-0.4-1.4l2.5-0.8h1.2v9.6H182V46.2z"/>
	<path class="st1" d="M185.7,52.7l3.3-2.8c1.3-1.1,1.8-1.7,1.8-2.6c0-0.9-0.7-1.5-1.5-1.5s-1.5,0.5-2.2,1.4l-1.2-0.9
		c0.9-1.3,1.8-2,3.5-2c1.9,0,3.1,1.1,3.1,2.8v0c0,1.5-0.8,2.3-2.5,3.7l-2,1.6h4.5v1.5h-6.9V52.7z"/>
	<path class="st1" d="M198.1,49.1h4v1.6h-4V49.1z"/>
	<path class="st1" d="M212.6,51.9h-4.8l-0.3-1.2l5.3-6.2h1.4v6.1h1.4v1.4h-1.4v2.1h-1.6V51.9z M212.6,50.6v-3.8l-3.1,3.8H212.6z"/>
	<path class="st1" d="M221.8,51.9H217l-0.3-1.2l5.3-6.2h1.4v6.1h1.4v1.4h-1.4v2.1h-1.6V51.9z M221.8,50.6v-3.8l-3.1,3.8H221.8z"/>
	<path class="st1" d="M226.2,49.3L226.2,49.3c0-2.7,1.7-4.9,4.1-4.9c2.5,0,4.1,2.2,4.1,4.9v0c0,2.7-1.7,4.9-4.1,4.9
		S226.2,52.1,226.2,49.3z M232.8,49.3L232.8,49.3c0-1.9-1-3.4-2.4-3.4c-1.5,0-2.4,1.5-2.4,3.4v0c0,1.9,0.9,3.4,2.4,3.4
		C231.8,52.7,232.8,51.2,232.8,49.3z"/>
	<path class="st1" d="M236,49.3L236,49.3c0-2.7,1.7-4.9,4.1-4.9c2.5,0,4.1,2.2,4.1,4.9v0c0,2.7-1.7,4.9-4.1,4.9S236,52.1,236,49.3z
		 M242.6,49.3L242.6,49.3c0-1.9-1-3.4-2.4-3.4c-1.5,0-2.4,1.5-2.4,3.4v0c0,1.9,0.9,3.4,2.4,3.4C241.7,52.7,242.6,51.2,242.6,49.3z"
		/>
	<path class="st1" d="M97.2,63.2h-2.8v-2.3h8.3v2.3h-2.8v7.2h-2.6V63.2z"/>
	<path class="st1" d="M103.6,60.4h2.7v1.9h-2.7V60.4z M103.6,63h2.6v7.3h-2.6V63z"/>
	<path class="st1" d="M107.6,71.7l0.8-1.7c0.8,0.4,1.6,0.7,2.6,0.7c1.3,0,1.9-0.6,1.9-1.8v-0.3c-0.5,0.6-1.2,1.1-2.3,1.1
		c-1.8,0-3.3-1.3-3.3-3.4v0c0-2.1,1.5-3.4,3.2-3.4c1.1,0,1.7,0.4,2.3,1V63h2.6v5.6c0,1.3-0.3,2.3-0.9,2.9c-0.7,0.7-1.7,1-3.2,1
		C109.8,72.5,108.7,72.2,107.6,71.7z M112.9,66.3L112.9,66.3c0-0.8-0.6-1.4-1.5-1.4c-0.9,0-1.5,0.6-1.5,1.4v0c0,0.8,0.6,1.4,1.5,1.4
		C112.3,67.7,112.9,67.1,112.9,66.3z"/>
	<path class="st1" d="M116.8,63h2.6v1.5c0.4-1,1.1-1.7,2.3-1.6v2.7h-0.2c-1.3,0-2.1,0.8-2.1,2.5v2.3h-2.6V63z"/>
	<path class="st1" d="M122.2,66.7L122.2,66.7c0-2.2,1.5-3.9,3.7-3.9c2.5,0,3.7,1.9,3.7,4c0,0.2,0,0.4,0,0.5h-4.9
		c0.2,0.8,0.8,1.2,1.6,1.2c0.6,0,1.1-0.2,1.6-0.7l1.4,1.2c-0.7,0.9-1.7,1.5-3.2,1.5C123.8,70.5,122.2,69,122.2,66.7z M127.2,66.1
		c-0.1-0.8-0.6-1.3-1.3-1.3c-0.7,0-1.1,0.5-1.3,1.3H127.2z"/>
	<path class="st1" d="M133.9,68.9l1.5-1.7c0.9,0.7,2,1.1,3.1,1.1c0.7,0,1.1-0.2,1.1-0.7v0c0-0.4-0.3-0.6-1.6-0.9c-2-0.5-3.6-1-3.6-3
		v0c0-1.8,1.4-3,3.7-3c1.6,0,2.9,0.4,3.9,1.3l-1.3,1.9c-0.9-0.6-1.8-0.9-2.7-0.9c-0.6,0-0.9,0.3-0.9,0.6v0c0,0.4,0.3,0.6,1.6,0.9
		c2.2,0.5,3.5,1.2,3.5,3v0c0,1.9-1.5,3.1-3.8,3.1C136.6,70.5,135,70,133.9,68.9z"/>
	<path class="st1" d="M143.3,60.4h2.7v1.9h-2.7V60.4z M143.3,63h2.6v7.3h-2.6V63z"/>
	<path class="st1" d="M147.4,63h2.6v1.5c0.4-1,1.1-1.7,2.3-1.6v2.7H152c-1.3,0-2.1,0.8-2.1,2.5v2.3h-2.6V63z"/>
	<path class="st1" d="M152.6,63h2.7l1.4,4.3l1.4-4.3h2.7l-2.9,7.4h-2.3L152.6,63z"/>
	<path class="st1" d="M160.9,66.7L160.9,66.7c0-2.2,1.5-3.9,3.7-3.9c2.5,0,3.7,1.9,3.7,4c0,0.2,0,0.4,0,0.5h-4.9
		c0.2,0.8,0.8,1.2,1.6,1.2c0.6,0,1.1-0.2,1.6-0.7L168,69c-0.7,0.9-1.7,1.5-3.2,1.5C162.5,70.5,160.9,69,160.9,66.7z M165.9,66.1
		c-0.1-0.8-0.6-1.3-1.3-1.3c-0.7,0-1.1,0.5-1.3,1.3H165.9z"/>
	<path class="st1" d="M169.3,63h2.7v2.6h-2.7V63z M169.3,67.7h2.7v2.6h-2.7V67.7z"/>
	<path class="st1" d="M177.5,65.6L177.5,65.6c0-2.7,1.7-4.9,4.1-4.9c2.5,0,4.1,2.2,4.1,4.9v0c0,2.7-1.7,4.9-4.1,4.9
		S177.5,68.3,177.5,65.6z M184.1,65.6L184.1,65.6c0-1.9-1-3.4-2.4-3.4s-2.4,1.5-2.4,3.4v0c0,1.9,0.9,3.4,2.4,3.4
		S184.1,67.5,184.1,65.6z"/>
	<path class="st1" d="M187.2,67.8L187.2,67.8c0-1.2,0.6-1.9,1.7-2.3c-0.8-0.4-1.4-1.1-1.4-2.1v0c0-1.4,1.4-2.6,3.3-2.6
		s3.3,1.1,3.3,2.6v0c0,1.1-0.6,1.7-1.4,2.1c1,0.5,1.7,1.2,1.7,2.3v0c0,1.7-1.5,2.8-3.6,2.8C188.8,70.5,187.2,69.4,187.2,67.8z
		 M192.8,67.7L192.8,67.7c0-0.9-0.9-1.5-2-1.5s-2,0.6-2,1.4v0c0,0.8,0.7,1.4,2,1.4S192.8,68.4,192.8,67.7z M192.5,63.5L192.5,63.5
		c0-0.8-0.7-1.4-1.7-1.4s-1.7,0.6-1.7,1.3v0c0,0.8,0.7,1.4,1.7,1.4C191.8,64.9,192.5,64.3,192.5,63.5z"/>
	<path class="st1" d="M195.9,65.6L195.9,65.6c0-2.7,1.7-4.9,4.1-4.9c2.5,0,4.1,2.2,4.1,4.9v0c0,2.7-1.7,4.9-4.1,4.9
		S195.9,68.3,195.9,65.6z M202.4,65.6L202.4,65.6c0-1.9-1-3.4-2.4-3.4c-1.5,0-2.4,1.5-2.4,3.4v0c0,1.9,0.9,3.4,2.4,3.4
		C201.5,69,202.4,67.5,202.4,65.6z"/>
	<path class="st1" d="M205.7,65.6L205.7,65.6c0-2.7,1.7-4.9,4.1-4.9c2.5,0,4.1,2.2,4.1,4.9v0c0,2.7-1.7,4.9-4.1,4.9
		S205.7,68.3,205.7,65.6z M212.2,65.6L212.2,65.6c0-1.9-1-3.4-2.4-3.4c-1.5,0-2.4,1.5-2.4,3.4v0c0,1.9,0.9,3.4,2.4,3.4
		C211.3,69,212.2,67.5,212.2,65.6z"/>
	<path class="st1" d="M219.6,65.4h4V67h-4V65.4z"/>
	<path class="st1" d="M230.8,62.5l-1.7,0.5l-0.4-1.4l2.5-0.8h1.2v9.6h-1.7V62.5z"/>
	<path class="st1" d="M234.4,69l3.3-2.8c1.3-1.1,1.8-1.7,1.8-2.6c0-0.9-0.7-1.5-1.5-1.5s-1.5,0.5-2.2,1.4l-1.2-0.9
		c0.9-1.3,1.8-2,3.5-2c1.9,0,3.1,1.1,3.1,2.8v0c0,1.5-0.8,2.3-2.5,3.7l-2,1.6h4.5v1.5h-6.9V69z"/>
	<path class="st1" d="M242.7,69l3.3-2.8c1.3-1.1,1.8-1.7,1.8-2.6c0-0.9-0.7-1.5-1.5-1.5s-1.5,0.5-2.2,1.4l-1.2-0.9
		c0.9-1.3,1.8-2,3.5-2c1.9,0,3.1,1.1,3.1,2.8v0c0,1.5-0.8,2.3-2.5,3.7l-2,1.6h4.5v1.5h-6.9V69z"/>
	<path class="st1" d="M255.2,65.4h4V67h-4V65.4z"/>
	<path class="st1" d="M264.7,67.8L264.7,67.8c0-1.2,0.6-1.9,1.7-2.3c-0.8-0.4-1.4-1.1-1.4-2.1v0c0-1.4,1.4-2.6,3.3-2.6
		c1.9,0,3.3,1.1,3.3,2.6v0c0,1.1-0.6,1.7-1.4,2.1c1,0.5,1.7,1.2,1.7,2.3v0c0,1.7-1.5,2.8-3.6,2.8C266.3,70.5,264.7,69.4,264.7,67.8z
		 M270.3,67.7L270.3,67.7c0-0.9-0.9-1.5-2-1.5c-1.1,0-2,0.6-2,1.4v0c0,0.8,0.7,1.4,2,1.4C269.6,69.1,270.3,68.4,270.3,67.7z
		 M270,63.5L270,63.5c0-0.8-0.7-1.4-1.7-1.4c-1,0-1.7,0.6-1.7,1.3v0c0,0.8,0.7,1.4,1.7,1.4S270,64.3,270,63.5z"/>
	<path class="st1" d="M278.2,68.2h-4.8l-0.3-1.2l5.3-6.2h1.4v6.1h1.4v1.4h-1.4v2.1h-1.6V68.2z M278.2,66.8v-3.8l-3.1,3.8H278.2z"/>
	<path class="st1" d="M287.4,68.2h-4.8l-0.3-1.2l5.3-6.2h1.4v6.1h1.4v1.4H289v2.1h-1.6V68.2z M287.4,66.8v-3.8l-3.1,3.8H287.4z"/>
	<path class="st1" d="M296.3,62.3h-4.8v-1.5h6.7v1.3l-4.3,8.2h-1.9L296.3,62.3z"/>
	<path class="st1" d="M299.2,68.8l1.2-1.1c0.7,0.8,1.4,1.2,2.5,1.2c0.9,0,1.6-0.6,1.6-1.4v0c0-0.9-0.9-1.5-2.2-1.5h-0.8l-0.3-1
		l2.6-2.7h-4.1v-1.5h6.3v1.2l-2.6,2.7c1.4,0.2,2.8,0.9,2.8,2.7v0c0,1.7-1.4,3-3.3,3C301.2,70.5,300,69.8,299.2,68.8z"/>
	<path class="st1" d="M94.9,77.1h7.6v2.2h-5v1.4h4.6v2.1h-4.6v1.5h5.1v2.2h-7.7V77.1z"/>
	<path class="st1" d="M103.6,81.2h4.4v2.3h-4.4V81.2z"/>
	<path class="st1" d="M109.3,79.3h2.6v1c0.5-0.6,1.2-1.2,2.2-1.2c1,0,1.7,0.4,2.1,1.2c0.6-0.7,1.4-1.2,2.5-1.2c1.6,0,2.5,1,2.5,2.7
		v4.8h-2.6v-4c0-0.8-0.4-1.2-1-1.2s-1.1,0.4-1.1,1.2v4h-2.6v-4c0-0.8-0.4-1.2-1-1.2c-0.6,0-1,0.4-1,1.2v4h-2.6V79.3z"/>
	<path class="st1" d="M122.1,84.5L122.1,84.5c0-1.5,1.2-2.3,2.9-2.3c0.7,0,1.3,0.1,1.8,0.3v-0.1c0-0.8-0.5-1.2-1.5-1.2
		c-0.8,0-1.4,0.1-2,0.4l-0.5-1.8c0.8-0.3,1.7-0.6,3-0.6c1.3,0,2.2,0.3,2.8,0.9c0.6,0.5,0.8,1.3,0.8,2.3v4.2h-2.5v-0.8
		c-0.5,0.6-1.2,0.9-2.2,0.9C123.2,86.8,122.1,86,122.1,84.5z M126.7,83.9v-0.3c-0.3-0.1-0.6-0.2-1-0.2c-0.7,0-1.2,0.4-1.2,0.9v0
		c0,0.5,0.4,0.8,0.9,0.8C126.2,85.2,126.7,84.7,126.7,83.9z"/>
	<path class="st1" d="M130.6,76.7h2.7v1.9h-2.7V76.7z M130.6,79.3h2.6v7.3h-2.6V79.3z"/>
	<path class="st1" d="M134.7,76.7h2.6v9.9h-2.6V76.7z"/>
	<path class="st1" d="M138.7,79.3h2.7v2.6h-2.7V79.3z M138.7,84h2.7v2.6h-2.7V84z"/>
	<path class="st1" d="M146.5,85.7l0.7-1.1c0.8,0.6,1.6,0.9,2.3,0.9c0.7,0,1.1-0.3,1.1-0.8v0c0-0.6-0.8-0.7-1.6-1
		c-1.1-0.3-2.2-0.7-2.2-2.1v0c0-1.4,1.1-2.2,2.5-2.2c0.9,0,1.9,0.3,2.6,0.8l-0.7,1.2c-0.7-0.4-1.4-0.7-2-0.7c-0.6,0-1,0.3-1,0.7v0
		c0,0.5,0.8,0.7,1.6,1c1,0.3,2.2,0.8,2.2,2.1v0c0,1.5-1.2,2.2-2.7,2.2C148.5,86.7,147.4,86.4,146.5,85.7z"/>
	<path class="st1" d="M153.9,76.8h1.8v1.6h-1.8V76.8z M154,79.4h1.6v7.2H154V79.4z"/>
	<path class="st1" d="M157.8,79.4h1.6v1.6c0.4-1.1,1.3-1.8,2.5-1.7V81h-0.1c-1.4,0-2.4,0.9-2.4,2.8v2.7h-1.6V79.4z"/>
	<path class="st1" d="M162.7,79.4h1.8l1.9,5.3l1.9-5.3h1.7l-2.9,7.2h-1.5L162.7,79.4z"/>
	<path class="st1" d="M170.6,83.1L170.6,83.1c0-2.1,1.4-3.8,3.5-3.8c2.3,0,3.4,1.8,3.4,3.8c0,0.1,0,0.3,0,0.5h-5.3
		c0.2,1.2,1,1.8,2.1,1.8c0.8,0,1.4-0.3,1.9-0.9l1,0.9c-0.7,0.8-1.6,1.3-2.9,1.3C172.2,86.8,170.6,85.3,170.6,83.1z M175.9,82.5
		c-0.1-1.1-0.7-1.9-1.8-1.9c-1,0-1.7,0.8-1.9,1.9H175.9z"/>
	<path class="st1" d="M178.9,82.9c0-3.2,2.6-5.9,5.9-5.9c3.3,0,5.9,2.6,5.9,5.4c0,2.3-1.2,3.4-2.6,3.4c-1.1,0-1.7-0.4-2-0.9
		c-0.5,0.5-1.2,0.9-2.1,0.9c-1.4,0-2.5-1-2.5-2.6c0-1.9,1.5-3.4,3.1-3.4c1,0,1.6,0.5,1.9,1l0.2-0.8l1.3,0.2l-0.6,3.4
		c0,0.2-0.1,0.5-0.1,0.6c0,0.6,0.4,1,1.1,1c1,0,1.8-0.9,1.8-2.8c0-2.5-2.3-4.9-5.4-4.9c-3.1,0-5.4,2.4-5.4,5.4c0,3,2.3,5.4,5.5,5.4
		c1.3,0,2.3-0.3,3.3-0.9l0.2,0.4c-1,0.6-2.2,1-3.6,1C181.5,88.8,178.9,86.1,178.9,82.9z M186.2,82.4c0-0.9-0.6-1.5-1.4-1.5
		c-1,0-1.9,0.9-1.9,2.1c0,0.9,0.6,1.5,1.4,1.5C185.4,84.5,186.2,83.6,186.2,82.4z"/>
	<path class="st1" d="M192.8,84.6v-3.8h-0.9v-1.4h0.9v-2h1.6v2h1.9v1.4h-1.9v3.5c0,0.6,0.3,0.9,0.9,0.9c0.4,0,0.7-0.1,1-0.2v1.3
		c-0.4,0.2-0.9,0.4-1.5,0.4C193.7,86.7,192.8,86.2,192.8,84.6z"/>
	<path class="st1" d="M198.1,76.8h1.8v1.6h-1.8V76.8z M198.1,79.4h1.6v7.2h-1.6V79.4z"/>
	<path class="st1" d="M201.9,87.9l0.6-1.2c0.8,0.5,1.6,0.8,2.5,0.8c1.5,0,2.3-0.8,2.3-2.2v-0.6c-0.6,0.8-1.3,1.3-2.5,1.3
		c-1.7,0-3.3-1.2-3.3-3.3v0c0-2.1,1.6-3.4,3.3-3.4c1.2,0,2,0.6,2.5,1.2v-1.1h1.6v5.7c0,1.2-0.3,2.1-0.9,2.7c-0.7,0.7-1.7,1-2.9,1
		C203.9,88.8,202.8,88.5,201.9,87.9z M207.3,82.7L207.3,82.7c0-1.2-1-2-2.1-2c-1.1,0-2,0.8-2,2v0c0,1.2,0.9,2,2,2
		C206.4,84.7,207.3,83.8,207.3,82.7z"/>
	<path class="st1" d="M211,79.4h1.6v1.6c0.4-1.1,1.3-1.8,2.5-1.7V81h-0.1c-1.4,0-2.4,0.9-2.4,2.8v2.7H211V79.4z"/>
	<path class="st1" d="M216,83.1L216,83.1c0-2.1,1.5-3.8,3.5-3.8c2.3,0,3.4,1.8,3.4,3.8c0,0.1,0,0.3,0,0.5h-5.3
		c0.2,1.2,1,1.8,2.1,1.8c0.8,0,1.4-0.3,1.9-0.9l1,0.9c-0.7,0.8-1.6,1.3-2.9,1.3C217.6,86.8,216,85.3,216,83.1z M221.3,82.5
		c-0.1-1.1-0.7-1.9-1.8-1.9c-1,0-1.7,0.8-1.9,1.9H221.3z"/>
	<path class="st1" d="M224.3,84.7h1.8v1.9h-1.8V84.7z"/>
	<path class="st1" d="M227.9,87.9l0.6-1.2c0.8,0.5,1.6,0.8,2.5,0.8c1.5,0,2.3-0.8,2.3-2.2v-0.6c-0.6,0.8-1.3,1.3-2.5,1.3
		c-1.7,0-3.3-1.2-3.3-3.3v0c0-2.1,1.6-3.4,3.3-3.4c1.2,0,2,0.6,2.5,1.2v-1.1h1.6v5.7c0,1.2-0.3,2.1-0.9,2.7c-0.7,0.7-1.7,1-2.9,1
		C229.9,88.8,228.8,88.5,227.9,87.9z M233.3,82.7L233.3,82.7c0-1.2-1-2-2.1-2c-1.1,0-2,0.8-2,2v0c0,1.2,0.9,2,2,2
		C232.4,84.7,233.3,83.8,233.3,82.7z"/>
	<path class="st1" d="M236.6,83.1L236.6,83.1c0-2.1,1.6-3.8,3.8-3.8s3.8,1.7,3.8,3.7v0c0,2-1.6,3.7-3.8,3.7
		C238.2,86.8,236.6,85.1,236.6,83.1z M242.6,83.1L242.6,83.1c0-1.3-0.9-2.3-2.2-2.3c-1.3,0-2.2,1-2.2,2.3v0c0,1.2,0.9,2.3,2.2,2.3
		C241.8,85.3,242.6,84.3,242.6,83.1z"/>
	<path class="st1" d="M247.6,85.5v1.1h-1.6v-9.9h1.6v3.9c0.5-0.7,1.3-1.3,2.4-1.3c1.7,0,3.3,1.3,3.3,3.7v0c0,2.4-1.6,3.7-3.3,3.7
		C248.8,86.8,248.1,86.2,247.6,85.5z M251.6,83L251.6,83c0-1.4-0.9-2.3-2-2.3c-1.1,0-2.1,0.9-2.1,2.3v0c0,1.4,1,2.3,2.1,2.3
		C250.7,85.3,251.6,84.4,251.6,83z"/>
	<path class="st1" d="M254.8,84.7h1.8v1.9h-1.8V84.7z"/>
	<path class="st1" d="M262.9,86.6v-0.9c-0.5,0.6-1.2,1-2.3,1c-1.4,0-2.5-0.8-2.5-2.2v0c0-1.6,1.2-2.3,2.9-2.3c0.9,0,1.4,0.1,2,0.3
		v-0.1c0-1-0.6-1.5-1.8-1.5c-0.8,0-1.4,0.2-2,0.4l-0.4-1.3c0.8-0.4,1.6-0.6,2.7-0.6c2.1,0,3.1,1.1,3.1,3v4.2H262.9z M262.9,83.6
		c-0.4-0.2-1-0.3-1.6-0.3c-1,0-1.6,0.4-1.6,1.1v0c0,0.7,0.6,1.1,1.4,1.1c1.1,0,1.9-0.6,1.9-1.5V83.6z"/>
	<path class="st1" d="M266.5,79.4h1.6v1.6c0.4-1.1,1.3-1.8,2.5-1.7V81h-0.1c-1.4,0-2.4,0.9-2.4,2.8v2.7h-1.6V79.4z"/>
</g>
</svg>
